{
  "accessors": [
    {
      "bufferView": 2,
      "componentType": 5126,
      "count": 67,
      "max": [
        1.4140244722366333,
        0.8185239434242249,
        1.404817819595337
      ],
      "min": [
        -1.824958086013794,
        -1.3737390041351318,
        -0.585898220539093
      ],
      "type": "VEC3"
    },
    {
      "bufferView": 2,
      "byteOffset": 804,
      "componentType": 5126,
      "count": 67,
      "max": [
        0.9986380338668823,
        1.0,
        0.911828339099884
      ],
      "min": [
        -0.39941951632499695,
        -0.09504368901252747,
        -0.9957044720649719
      ],
      "type": "VEC3"
    },
    {
      "bufferView": 1,
      "componentType": 5126,
      "count": 67,
      "max": [
        0.9066100120544434,
        0.9208011627197266
      ],
      "min": [
        0.08473809063434601,
        0.03182120621204376
      ],
      "type": "VEC2"
    },
    {
      "bufferView": 0,
      "componentType": 5125,
      "count": 135,
      "type": "SCALAR"
    },
    {
      "bufferView": 2,
      "byteOffset": 1608,
      "componentType": 5126,
      "count": 262,
      "max": [
        1.1389087438583374,
        1.0,
        1.1389087438583374
      ],
      "min": [
        -1.1389087438583374,
        -1.0775911808013916,
        -1.1389086246490479
      ],
      "type": "VEC3"
    },
    {
      "bufferView": 2,
      "byteOffset": 4752,
      "componentType": 5126,
      "count": 262,
      "max": [
        1.0,
        1.0,
        1.0
      ],
      "min": [
        -1.0,
        -1.0,
        -1.0
      ],
      "type": "VEC3"
    },
    {
      "bufferView": 1,
      "byteOffset": 536,
      "componentType": 5126,
      "count": 262,
      "max": [
        1.0,
        1.0
      ],
      "min": [
        0.0,
        0.01000000536441803
      ],
      "type": "VEC2"
    },
    {
      "bufferView": 0,
      "byteOffset": 540,
      "componentType": 5125,
      "count": 756,
      "type": "SCALAR"
    },
    {
      "bufferView": 2,
      "byteOffset": 7896,
      "componentType": 5126,
      "count": 67,
      "max": [
        1.4140244722366333,
        0.8185239434242249,
        1.404817819595337
      ],
      "min": [
        -1.824958086013794,
        -1.3737390041351318,
        -0.585898220539093
      ],
      "type": "VEC3"
    },
    {
      "bufferView": 2,
      "byteOffset": 8700,
      "componentType": 5126,
      "count": 67,
      "max": [
        0.9986380338668823,
        1.0,
        0.911828339099884
      ],
      "min": [
        -0.39941951632499695,
        -0.09504368901252747,
        -0.9957044720649719
      ],
      "type": "VEC3"
    },
    {
      "bufferView": 1,
      "byteOffset": 2632,
      "componentType": 5126,
      "count": 67,
      "max": [
        0.9066100120544434,
        0.9208011627197266
      ],
      "min": [
        0.08473809063434601,
        0.03182120621204376
      ],
      "type": "VEC2"
    },
    {
      "bufferView": 0,
      "byteOffset": 3564,
      "componentType": 5125,
      "count": 135,
      "type": "SCALAR"
    },
    {
      "bufferView": 2,
      "byteOffset": 9504,
      "componentType": 5126,
      "count": 262,
      "max": [
        1.1389087438583374,
        1.0,
        1.1389087438583374
      ],
      "min": [
        -1.1389087438583374,
        -1.0775911808013916,
        -1.1389086246490479
      ],
      "type": "VEC3"
    },
    {
      "bufferView": 2,
      "byteOffset": 12648,
      "componentType": 5126,
      "count": 262,
      "max": [
        1.0,
        1.0,
        1.0
      ],
      "min": [
        -1.0,
        -1.0,
        -1.0
      ],
      "type": "VEC3"
    },
    {
      "bufferView": 1,
      "byteOffset": 3168,
      "componentType": 5126,
      "count": 262,
      "max": [
        1.0,
        1.0
      ],
      "min": [
        0.0,
        0.01000000536441803
      ],
      "type": "VEC2"
    },
    {
      "bufferView": 0,
      "byteOffset": 4104,
      "componentType": 5125,
      "count": 756,
      "type": "SCALAR"
    },
    {
      "bufferView": 2,
      "byteOffset": 15792,
      "componentType": 5126,
      "count": 67,
      "max": [
        1.4140244722366333,
        0.8185239434242249,
        1.404817819595337
      ],
      "min": [
        -1.824958086013794,
        -1.3737390041351318,
        -0.585898220539093
      ],
      "type": "VEC3"
    },
    {
      "bufferView": 2,
      "byteOffset": 16596,
      "componentType": 5126,
      "count": 67,
      "max": [
        0.9986380338668823,
        1.0,
        0.911828339099884
      ],
      "min": [
        -0.39941951632499695,
        -0.09504368901252747,
        -0.9957044720649719
      ],
      "type": "VEC3"
    },
    {
      "bufferView": 1,
      "byteOffset": 5264,
      "componentType": 5126,
      "count": 67,
      "max": [
        0.9066100120544434,
        0.9208011627197266
      ],
      "min": [
        0.08473809063434601,
        0.03182120621204376
      ],
      "type": "VEC2"
    },
    {
      "bufferView": 0,
      "byteOffset": 7128,
      "componentType": 5125,
      "count": 135,
      "type": "SCALAR"
    },
    {
      "bufferView": 2,
      "byteOffset": 17400,
      "componentType": 5126,
      "count": 262,
      "max": [
        1.1389087438583374,
        1.0,
        1.1389087438583374
      ],
      "min": [
        -1.1389087438583374,
        -1.0775911808013916,
        -1.1389086246490479
      ],
      "type": "VEC3"
    },
    {
      "bufferView": 2,
      "byteOffset": 20544,
      "componentType": 5126,
      "count": 262,
      "max": [
        1.0,
        1.0,
        1.0
      ],
      "min": [
        -1.0,
        -1.0,
        -1.0
      ],
      "type": "VEC3"
    },
    {
      "bufferView": 1,
      "byteOffset": 5800,
      "componentType": 5126,
      "count": 262,
      "max": [
        1.0,
        1.0
      ],
      "min": [
        0.0,
        0.01000000536441803
      ],
      "type": "VEC2"
    },
    {
      "bufferView": 0,
      "byteOffset": 7668,
      "componentType": 5125,
      "count": 756,
      "type": "SCALAR"
    }
  ],
  "asset": {
    "extras": {
      "author": "QuantumWolf (https://sketchfab.com/quantumwolf)",
      "license": "CC-BY-4.0 (http://creativecommons.org/licenses/by/4.0/)",
      "source": "https://sketchfab.com/3d-models/day-2-optical-illusions-d148b338ae124f90a994cc96230dd1ed",
      "title": "Day 2: Optical Illusions"
    },
    "generator": "Sketchfab-12.68.0",
    "version": "2.0"
  },
  "bufferViews": [
    {
      "buffer": 0,
      "byteLength": 10692,
      "name": "floatBufferViews",
      "target": 34963
    },
    {
      "buffer": 0,
      "byteLength": 7896,
      "byteOffset": 10692,
      "byteStride": 8,
      "name": "floatBufferViews",
      "target": 34962
    },
    {
      "buffer": 0,
      "byteLength": 23688,
      "byteOffset": 18588,
      "byteStride": 12,
      "name": "floatBufferViews",
      "target": 34962
    }
  ],
  "buffers": [
    {
      "byteLength": 42276,
      "uri": "scene.bin"
    }
  ],
  "extensionsUsed": [
    "KHR_materials_unlit"
  ],
  "images": [
    {
      "uri": "textures/Material.001_baseColor.jpeg"
    }
  ],
  "materials": [
    {
      "doubleSided": true,
      "extensions": {
        "KHR_materials_unlit": {}
      },
      "name": "Material.001",
      "pbrMetallicRoughness": {
        "baseColorTexture": {
          "index": 0
        },
        "metallicFactor": 0.0
      }
    },
    {
      "doubleSided": true,
      "extensions": {
        "KHR_materials_unlit": {}
      },
      "name": "Material.003",
      "pbrMetallicRoughness": {
        "baseColorFactor": [
          0.00106504,
          0.00485166,
          0.0871073,
          1.0
        ],
        "metallicFactor": 0.0
      }
    }
  ],
  "meshes": [
    {
      "name": "Object_0",
      "primitives": [
        {
          "attributes": {
            "NORMAL": 1,
            "POSITION": 0,
            "TEXCOORD_0": 2
          },
          "indices": 3,
          "material": 0,
          "mode": 4
        }
      ]
    },
    {
      "name": "Object_1",
      "primitives": [
        {
          "attributes": {
            "NORMAL": 5,
            "POSITION": 4,
            "TEXCOORD_0": 6
          },
          "indices": 7,
          "material": 1,
          "mode": 4
        }
      ]
    },
    {
      "name": "Object_2",
      "primitives": [
        {
          "attributes": {
            "NORMAL": 9,
            "POSITION": 8,
            "TEXCOORD_0": 10
          },
          "indices": 11,
          "material": 0,
          "mode": 4
        }
      ]
    },
    {
      "name": "Object_3",
      "primitives": [
        {
          "attributes": {
            "NORMAL": 13,
            "POSITION": 12,
            "TEXCOORD_0": 14
          },
          "indices": 15,
          "material": 1,
          "mode": 4
        }
      ]
    },
    {
      "name": "Object_4",
      "primitives": [
        {
          "attributes": {
            "NORMAL": 17,
            "POSITION": 16,
            "TEXCOORD_0": 18
          },
          "indices": 19,
          "material": 0,
          "mode": 4
        }
      ]
    },
    {
      "name": "Object_5",
      "primitives": [
        {
          "attributes": {
            "NORMAL": 21,
            "POSITION": 20,
            "TEXCOORD_0": 22
          },
          "indices": 23,
          "material": 1,
          "mode": 4
        }
      ]
    }
  ],
  "nodes": [
    {
      "children": [
        1
      ],
      "matrix": [
        1.0,
        0.0,
        0.0,
        0.0,
        0.0,
        3.828568672208042e-16,
        -1.0,
        0.0,
        0.0,
        1.0,
        3.828568672208042e-16,
        0.0,
        0.0,
        -0.026516050100326538,
        -1.8629898737028728e-16,
        1.0
      ],
      "name": "Sketchfab_model"
    },
    {
      "children": [
        2
      ],
      "name": "root"
    },
    {
      "children": [
        3,
        5,
        7,
        9,
        11,
        13
      ],
      "matrix": [
        1.0,
        0.0,
        0.0,
        0.0,
        0.0,
        2.220446049250313e-16,
        1.0,
        0.0,
        0.0,
        -1.0,
        2.220446049250313e-16,
        0.0,
        0.0,
        0.0,
        0.0,
        1.0
      ],
      "name": "GLTF_SceneRootNode"
    },
    {
      "children": [
        4
      ],
      "matrix": [
        0.25843880382559103,
        -0.9648008282631374,
        -0.04866976946690686,
        0.0,
        0.9660224855820593,
        0.2579447816720555,
        0.01628026283619829,
        0.0,
        -0.0031530980095351158,
        -0.05122354332648049,
        0.9986822350387647,
        0.0,
        0.15151691436767578,
        0.9967200756072998,
        0.0,
        1.0
      ],
      "name": "Plane.001_0"
    },
    {
      "mesh": 0,
      "name": "Object_4"
    },
    {
      "children": [
        6
      ],
      "matrix": [
        1.6277440786361694,
        0.0,
        0.0,
        0.0,
        0.0,
        0.2043190896511078,
        0.0,
        0.0,
        0.0,
        0.0,
        1.6277440786361694,
        0.0,
        -0.23388266563415527,
        -0.5424934029579163,
        0.1136060506105423,
        1.0
      ],
      "name": "Cylinder_1"
    },
    {
      "mesh": 1,
      "name": "Object_6"
    },
    {
      "children": [
        8
      ],
      "matrix": [
        0.25843880382559103,
        -0.9648008282631374,
        -0.04866976946690686,
        0.0,
        0.9660224855820593,
        0.2579447816720555,
        0.01628026283619829,
        0.0,
        -0.0031530980095351158,
        -0.05122354332648049,
        0.9986822350387647,
        0.0,
        -4.324387073516846,
        0.9967200756072998,
        0.0,
        1.0
      ],
      "name": "Plane.002_2"
    },
    {
      "mesh": 2,
      "name": "Object_8"
    },
    {
      "children": [
        10
      ],
      "matrix": [
        1.6277440786361694,
        0.0,
        0.0,
        0.0,
        0.0,
        0.2043190896511078,
        0.0,
        0.0,
        0.0,
        0.0,
        1.6277440786361694,
        0.0,
        -4.709786415100098,
        -0.5424934029579163,
        0.1136060506105423,
        1.0
      ],
      "name": "Cylinder.001_3"
    },
    {
      "mesh": 3,
      "name": "Object_10"
    },
    {
      "children": [
        12
      ],
      "matrix": [
        0.25843880382559103,
        -0.9648008282631374,
        -0.04866976946690686,
        0.0,
        0.9660224855820593,
        0.2579447816720555,
        0.01628026283619829,
        0.0,
        -0.0031530980095351158,
        -0.05122354332648049,
        0.9986822350387647,
        0.0,
        -9.88027572631836,
        0.9967200756072998,
        0.0,
        1.0
      ],
      "name": "Plane.003_4"
    },
    {
      "mesh": 4,
      "name": "Object_12"
    },
    {
      "children": [
        14
      ],
      "matrix": [
        1.6277440786361694,
        0.0,
        0.0,
        0.0,
        0.0,
        0.2043190896511078,
        0.0,
        0.0,
        0.0,
        0.0,
        1.6277440786361694,
        0.0,
        -10.26567554473877,
        -0.5424934029579163,
        0.1136060506105423,
        1.0
      ],
      "name": "Cylinder.002_5"
    },
    {
      "mesh": 5,
      "name": "Object_14"
    }
  ],
  "samplers": [
    {
      "magFilter": 9729,
      "minFilter": 9987,
      "wrapS": 10497,
      "wrapT": 10497
    }
  ],
  "scene": 0,
  "scenes": [
    {
      "name": "Sketchfab_Scene",
      "nodes": [
        0
      ]
    }
  ],
  "textures": [
    {
      "sampler": 0,
      "source": 0
    }
  ]
}
