{
	"asset":{
		"generator":"Khronos glTF Blender I/O v5.0.21",
		"version":"2.0"
	},
	"scene":0,
	"scenes":[
		{
			"name":"Scene",
			"nodes":[
				0,
				1,
				2,
				3,
				4,
				5
			]
		}
	],
	"nodes":[
		{
			"mesh":0,
			"name":"Cube",
			"rotation":[
				0.09748939424753189,
				0.1504942923784256,
				0.20433303713798523,
				0.9623384475708008
			],
			"translation":[
				1.1799999475479126,
				-0.8168489933013916,
				0
			]
		},
		{
			"mesh":1,
			"name":"Cube.001",
			"rotation":[
				0.14976249635219574,
				0.25770145654678345,
				-0.07722388952970505,
				0.9514187574386597
			],
			"translation":[
				-1.2203900814056396,
				-0.22999998927116394,
				1.711134672164917
			]
		},
		{
			"mesh":2,
			"name":"Cylinder",
			"rotation":[
				-0.4737749695777893,
				0.5304352045059204,
				0.5906344056129456,
				0.38121750950813293
			],
			"scale":[
				0.12715281546115875,
				6.014019012451172,
				0.12493085861206055
			],
			"translation":[
				-0.24653100967407227,
				-0.2311323583126068,
				-0.6714764833450317
			]
		},
		{
			"mesh":3,
			"name":"Cylinder.001",
			"rotation":[
				-0.05768141895532608,
				-0.0765458270907402,
				0.5990443825721741,
				0.7949588894844055
			],
			"scale":[
				0.15004077553749084,
				7.096562385559082,
				0.1474188268184662
			],
			"translation":[
				0.7026929259300232,
				-1.2299745082855225,
				-0.2615858316421509
			]
		},
		{
			"mesh":4,
			"name":"Cylinder.002",
			"rotation":[
				-0.5998821258544922,
				0.17726387083530426,
				0.13849370181560516,
				0.7678142189979553
			],
			"scale":[
				0.11517215520143509,
				5.447361469268799,
				0.11315952986478806
			],
			"translation":[
				-0.6927106380462646,
				0,
				3.0041425228118896
			]
		},
		{
			"mesh":5,
			"name":"Cylinder.003",
			"rotation":[
				-0.0328977108001709,
				-0.011649690568447113,
				0.33360350131988525,
				0.9420672655105591
			],
			"scale":[
				0.11517214775085449,
				5.447361469268799,
				0.11315952986478806
			],
			"translation":[
				-0.41086798906326294,
				0.05607517436146736,
				0.8547308444976807
			]
		}
	],
	"materials":[
		{
			"doubleSided":true,
			"name":"Material",
			"pbrMetallicRoughness":{
				"baseColorFactor":[
					0.800039529800415,
					0.10158209502696991,
					0.2931971549987793,
					1
				],
				"metallicFactor":0,
				"roughnessFactor":0.5
			}
		},
		{
			"doubleSided":true,
			"name":"Material.001",
			"pbrMetallicRoughness":{
				"baseColorFactor":[
					0.025041857734322548,
					0.8000229597091675,
					0.7783201932907104,
					1
				],
				"metallicFactor":0,
				"roughnessFactor":0.5
			}
		}
	],
	"meshes":[
		{
			"name":"Cube",
			"primitives":[
				{
					"attributes":{
						"POSITION":0,
						"NORMAL":1,
						"TEXCOORD_0":2
					},
					"indices":3,
					"material":0
				}
			]
		},
		{
			"name":"Cube.001",
			"primitives":[
				{
					"attributes":{
						"POSITION":4,
						"NORMAL":5,
						"TEXCOORD_0":6
					},
					"indices":7,
					"material":0
				}
			]
		},
		{
			"name":"Cylinder",
			"primitives":[
				{
					"attributes":{
						"POSITION":8,
						"NORMAL":9,
						"TEXCOORD_0":10
					},
					"indices":11,
					"material":1
				}
			]
		},
		{
			"name":"Cylinder.001",
			"primitives":[
				{
					"attributes":{
						"POSITION":12,
						"NORMAL":13,
						"TEXCOORD_0":14
					},
					"indices":11,
					"material":1
				}
			]
		},
		{
			"name":"Cylinder.002",
			"primitives":[
				{
					"attributes":{
						"POSITION":15,
						"NORMAL":16,
						"TEXCOORD_0":17
					},
					"indices":11,
					"material":1
				}
			]
		},
		{
			"name":"Cylinder.003",
			"primitives":[
				{
					"attributes":{
						"POSITION":18,
						"NORMAL":19,
						"TEXCOORD_0":20
					},
					"indices":11,
					"material":1
				}
			]
		}
	],
	"accessors":[
		{
			"bufferView":0,
			"componentType":5126,
			"count":192,
			"max":[
				1.311235785484314,
				1.2512537240982056,
				4.478724956512451
			],
			"min":[
				-1.0319348573684692,
				-1.1258660554885864,
				-2.6557202339172363
			],
			"type":"VEC3"
		},
		{
			"bufferView":1,
			"componentType":5126,
			"count":192,
			"type":"VEC3"
		},
		{
			"bufferView":2,
			"componentType":5126,
			"count":192,
			"type":"VEC2"
		},
		{
			"bufferView":3,
			"componentType":5123,
			"count":288,
			"type":"SCALAR"
		},
		{
			"bufferView":4,
			"componentType":5126,
			"count":192,
			"max":[
				2.0150294303894043,
				1.9643522500991821,
				4.536885738372803
			],
			"min":[
				-1.8772823810577393,
				-1.3822370767593384,
				-2.3788504600524902
			],
			"type":"VEC3"
		},
		{
			"bufferView":5,
			"componentType":5126,
			"count":192,
			"type":"VEC3"
		},
		{
			"bufferView":6,
			"componentType":5126,
			"count":192,
			"type":"VEC2"
		},
		{
			"bufferView":7,
			"componentType":5123,
			"count":288,
			"type":"SCALAR"
		},
		{
			"bufferView":8,
			"componentType":5126,
			"count":192,
			"max":[
				1,
				1,
				1
			],
			"min":[
				-1,
				-1,
				-1
			],
			"type":"VEC3"
		},
		{
			"bufferView":9,
			"componentType":5126,
			"count":192,
			"type":"VEC3"
		},
		{
			"bufferView":10,
			"componentType":5126,
			"count":192,
			"type":"VEC2"
		},
		{
			"bufferView":11,
			"componentType":5123,
			"count":372,
			"type":"SCALAR"
		},
		{
			"bufferView":12,
			"componentType":5126,
			"count":192,
			"max":[
				1,
				1,
				1
			],
			"min":[
				-1,
				-1,
				-1
			],
			"type":"VEC3"
		},
		{
			"bufferView":13,
			"componentType":5126,
			"count":192,
			"type":"VEC3"
		},
		{
			"bufferView":14,
			"componentType":5126,
			"count":192,
			"type":"VEC2"
		},
		{
			"bufferView":15,
			"componentType":5126,
			"count":192,
			"max":[
				1,
				1,
				1
			],
			"min":[
				-1,
				-1,
				-1
			],
			"type":"VEC3"
		},
		{
			"bufferView":16,
			"componentType":5126,
			"count":192,
			"type":"VEC3"
		},
		{
			"bufferView":17,
			"componentType":5126,
			"count":192,
			"type":"VEC2"
		},
		{
			"bufferView":18,
			"componentType":5126,
			"count":192,
			"max":[
				1,
				1,
				1
			],
			"min":[
				-1,
				-1,
				-1
			],
			"type":"VEC3"
		},
		{
			"bufferView":19,
			"componentType":5126,
			"count":192,
			"type":"VEC3"
		},
		{
			"bufferView":20,
			"componentType":5126,
			"count":192,
			"type":"VEC2"
		}
	],
	"bufferViews":[
		{
			"buffer":0,
			"byteLength":2304,
			"byteOffset":0,
			"target":34962
		},
		{
			"buffer":0,
			"byteLength":2304,
			"byteOffset":2304,
			"target":34962
		},
		{
			"buffer":0,
			"byteLength":1536,
			"byteOffset":4608,
			"target":34962
		},
		{
			"buffer":0,
			"byteLength":576,
			"byteOffset":6144,
			"target":34963
		},
		{
			"buffer":0,
			"byteLength":2304,
			"byteOffset":6720,
			"target":34962
		},
		{
			"buffer":0,
			"byteLength":2304,
			"byteOffset":9024,
			"target":34962
		},
		{
			"buffer":0,
			"byteLength":1536,
			"byteOffset":11328,
			"target":34962
		},
		{
			"buffer":0,
			"byteLength":576,
			"byteOffset":12864,
			"target":34963
		},
		{
			"buffer":0,
			"byteLength":2304,
			"byteOffset":13440,
			"target":34962
		},
		{
			"buffer":0,
			"byteLength":2304,
			"byteOffset":15744,
			"target":34962
		},
		{
			"buffer":0,
			"byteLength":1536,
			"byteOffset":18048,
			"target":34962
		},
		{
			"buffer":0,
			"byteLength":744,
			"byteOffset":19584,
			"target":34963
		},
		{
			"buffer":0,
			"byteLength":2304,
			"byteOffset":20328,
			"target":34962
		},
		{
			"buffer":0,
			"byteLength":2304,
			"byteOffset":22632,
			"target":34962
		},
		{
			"buffer":0,
			"byteLength":1536,
			"byteOffset":24936,
			"target":34962
		},
		{
			"buffer":0,
			"byteLength":2304,
			"byteOffset":26472,
			"target":34962
		},
		{
			"buffer":0,
			"byteLength":2304,
			"byteOffset":28776,
			"target":34962
		},
		{
			"buffer":0,
			"byteLength":1536,
			"byteOffset":31080,
			"target":34962
		},
		{
			"buffer":0,
			"byteLength":2304,
			"byteOffset":32616,
			"target":34962
		},
		{
			"buffer":0,
			"byteLength":2304,
			"byteOffset":34920,
			"target":34962
		},
		{
			"buffer":0,
			"byteLength":1536,
			"byteOffset":37224,
			"target":34962
		}
	],
	"buffers":[
		{
			"byteLength":38760,
			"uri":"impossible_cubes.bin"
		}
	]
}
