{
	"asset":{
		"generator":"Khronos glTF Blender I/O v5.0.21",
		"version":"2.0"
	},
	"scene":0,
	"scenes":[
		{
			"name":"Scene",
			"nodes":[
				0,
				1,
				2
			]
		}
	],
	"nodes":[
		{
			"mesh":0,
			"name":"Cube"
		},
		{
			"mesh":1,
			"name":"Plane",
			"scale":[
				3.3342928886413574,
				3.3342928886413574,
				3.3342928886413574
			]
		},
		{
			"mesh":2,
			"name":"Text",
			"scale":[
				0.3715490996837616,
				0.3715490996837616,
				0.3715490996837616
			],
			"translation":[
				-0.004946027882397175,
				0.006079159677028656,
				-0.06780147552490234
			]
		}
	],
	"materials":[
		{
			"doubleSided":true,
			"name":"Material.003",
			"pbrMetallicRoughness":{
				"baseColorTexture":{
					"index":0
				},
				"metallicFactor":0,
				"roughnessFactor":0.5
			}
		},
		{
			"doubleSided":true,
			"name":"Material.002",
			"pbrMetallicRoughness":{
				"metallicFactor":0,
				"roughnessFactor":0.5
			}
		},
		{
			"doubleSided":true,
			"name":"Material.001",
			"pbrMetallicRoughness":{
				"baseColorFactor":[
					0,
					0,
					0,
					1
				],
				"metallicFactor":0,
				"roughnessFactor":0.5
			}
		}
	],
	"meshes":[
		{
			"name":"Cube.001",
			"primitives":[
				{
					"attributes":{
						"POSITION":0,
						"NORMAL":1,
						"TEXCOORD_0":2
					},
					"indices":3,
					"material":0
				}
			]
		},
		{
			"name":"Plane",
			"primitives":[
				{
					"attributes":{
						"POSITION":4,
						"NORMAL":5,
						"TEXCOORD_0":6
					},
					"indices":7,
					"material":1
				}
			]
		},
		{
			"name":"Text",
			"primitives":[
				{
					"attributes":{
						"POSITION":8,
						"NORMAL":9,
						"TEXCOORD_0":10
					},
					"indices":11,
					"material":2
				}
			]
		}
	],
	"textures":[
		{
			"sampler":0,
			"source":0
		}
	],
	"images":[
		{
			"mimeType":"image/png",
			"name":"text",
			"uri":"text.png"
		}
	],
	"accessors":[
		{
			"bufferView":0,
			"componentType":5126,
			"count":7856,
			"max":[
				1,
				1,
				1
			],
			"min":[
				-1.0770957469940186,
				-1.0770957469940186,
				-1.0770957469940186
			],
			"type":"VEC3"
		},
		{
			"bufferView":1,
			"componentType":5126,
			"count":7856,
			"type":"VEC3"
		},
		{
			"bufferView":2,
			"componentType":5126,
			"count":7856,
			"type":"VEC2"
		},
		{
			"bufferView":3,
			"componentType":5123,
			"count":13728,
			"type":"SCALAR"
		},
		{
			"bufferView":4,
			"componentType":5126,
			"count":4,
			"max":[
				1,
				0,
				1
			],
			"min":[
				-1,
				0,
				-1
			],
			"type":"VEC3"
		},
		{
			"bufferView":5,
			"componentType":5126,
			"count":4,
			"type":"VEC3"
		},
		{
			"bufferView":6,
			"componentType":5126,
			"count":4,
			"type":"VEC2"
		},
		{
			"bufferView":7,
			"componentType":5123,
			"count":6,
			"type":"SCALAR"
		},
		{
			"bufferView":8,
			"componentType":5126,
			"count":956,
			"max":[
				2.61899995803833,
				0,
				1.0089999437332153
			],
			"min":[
				-2.57099986076355,
				0,
				-0.6910000443458557
			],
			"type":"VEC3"
		},
		{
			"bufferView":9,
			"componentType":5126,
			"count":956,
			"type":"VEC3"
		},
		{
			"bufferView":10,
			"componentType":5126,
			"count":956,
			"type":"VEC2"
		},
		{
			"bufferView":11,
			"componentType":5123,
			"count":2808,
			"type":"SCALAR"
		}
	],
	"bufferViews":[
		{
			"buffer":0,
			"byteLength":94272,
			"byteOffset":0,
			"target":34962
		},
		{
			"buffer":0,
			"byteLength":94272,
			"byteOffset":94272,
			"target":34962
		},
		{
			"buffer":0,
			"byteLength":62848,
			"byteOffset":188544,
			"target":34962
		},
		{
			"buffer":0,
			"byteLength":27456,
			"byteOffset":251392,
			"target":34963
		},
		{
			"buffer":0,
			"byteLength":48,
			"byteOffset":278848,
			"target":34962
		},
		{
			"buffer":0,
			"byteLength":48,
			"byteOffset":278896,
			"target":34962
		},
		{
			"buffer":0,
			"byteLength":32,
			"byteOffset":278944,
			"target":34962
		},
		{
			"buffer":0,
			"byteLength":12,
			"byteOffset":278976,
			"target":34963
		},
		{
			"buffer":0,
			"byteLength":11472,
			"byteOffset":278988,
			"target":34962
		},
		{
			"buffer":0,
			"byteLength":11472,
			"byteOffset":290460,
			"target":34962
		},
		{
			"buffer":0,
			"byteLength":7648,
			"byteOffset":301932,
			"target":34962
		},
		{
			"buffer":0,
			"byteLength":5616,
			"byteOffset":309580,
			"target":34963
		}
	],
	"samplers":[
		{
			"magFilter":9729,
			"minFilter":9987
		}
	],
	"buffers":[
		{
			"byteLength":315196,
			"uri":"CubeIllusion.bin"
		}
	]
}
