{
	"asset":{
		"generator":"Khronos glTF Blender I/O v5.0.21",
		"version":"2.0"
	},
	"scene":0,
	"scenes":[
		{
			"name":"Scene",
			"nodes":[
				0
			]
		}
	],
	"nodes":[
		{
			"mesh":0,
			"name":"Text.001",
			"rotation":[
				0.5,
				0.5,
				-0.5,
				0.5
			],
			"scale":[
				0.9442161321640015,
				0.9442161321640015,
				0.9442161321640015
			],
			"translation":[
				1.775360107421875,
				0.022535428404808044,
				1.397196650505066
			]
		}
	],
	"materials":[
		{
			"doubleSided":true,
			"name":"Material.001",
			"pbrMetallicRoughness":{
				"baseColorFactor":[
					0,
					0,
					0,
					1
				],
				"metallicFactor":0,
				"roughnessFactor":0.5
			}
		}
	],
	"meshes":[
		{
			"name":"Text.001",
			"primitives":[
				{
					"attributes":{
						"POSITION":0,
						"NORMAL":1,
						"TEXCOORD_0":2
					},
					"indices":3,
					"material":0
				}
			]
		}
	],
	"accessors":[
		{
			"bufferView":0,
			"componentType":5126,
			"count":1144,
			"max":[
				2.9870002269744873,
				1.1995556354522705,
				0.009000000543892384
			],
			"min":[
				0.07500000298023224,
				-1.8622432947158813,
				-0.6910000443458557
			],
			"type":"VEC3"
		},
		{
			"bufferView":1,
			"componentType":5126,
			"count":1144,
			"type":"VEC3"
		},
		{
			"bufferView":2,
			"componentType":5126,
			"count":1144,
			"type":"VEC2"
		},
		{
			"bufferView":3,
			"componentType":5123,
			"count":3132,
			"type":"SCALAR"
		}
	],
	"bufferViews":[
		{
			"buffer":0,
			"byteLength":13728,
			"byteOffset":0,
			"target":34962
		},
		{
			"buffer":0,
			"byteLength":13728,
			"byteOffset":13728,
			"target":34962
		},
		{
			"buffer":0,
			"byteLength":9152,
			"byteOffset":27456,
			"target":34962
		},
		{
			"buffer":0,
			"byteLength":6264,
			"byteOffset":36608,
			"target":34963
		}
	],
	"buffers":[
		{
			"byteLength":42872,
			"uri":"word4.bin"
		}
	]
}
