{
	"asset":{
		"generator":"Khronos glTF Blender I/O v5.0.21",
		"version":"2.0"
	},
	"scene":0,
	"scenes":[
		{
			"name":"Scene",
			"nodes":[
				0,
				1
			]
		}
	],
	"nodes":[
		{
			"mesh":0,
			"name":"Text"
		},
		{
			"mesh":1,
			"name":"Text.001"
		}
	],
	"animations":[
		{
			"channels":[
				{
					"sampler":0,
					"target":{
						"node":0,
						"path":"translation"
					}
				},
				{
					"sampler":1,
					"target":{
						"node":0,
						"path":"rotation"
					}
				},
				{
					"sampler":2,
					"target":{
						"node":0,
						"path":"scale"
					}
				}
			],
			"name":"TextAction",
			"samplers":[
				{
					"input":8,
					"interpolation":"LINEAR",
					"output":9
				},
				{
					"input":8,
					"interpolation":"LINEAR",
					"output":10
				},
				{
					"input":8,
					"interpolation":"LINEAR",
					"output":11
				}
			]
		},
		{
			"channels":[
				{
					"sampler":0,
					"target":{
						"node":1,
						"path":"translation"
					}
				},
				{
					"sampler":1,
					"target":{
						"node":1,
						"path":"rotation"
					}
				},
				{
					"sampler":2,
					"target":{
						"node":1,
						"path":"scale"
					}
				}
			],
			"name":"TextAction.001",
			"samplers":[
				{
					"input":8,
					"interpolation":"LINEAR",
					"output":9
				},
				{
					"input":8,
					"interpolation":"LINEAR",
					"output":10
				},
				{
					"input":8,
					"interpolation":"LINEAR",
					"output":11
				}
			]
		}
	],
	"materials":[
		{
			"doubleSided":true,
			"name":"Material",
			"pbrMetallicRoughness":{
				"baseColorFactor":[
					0,
					0,
					0,
					1
				],
				"metallicFactor":0,
				"roughnessFactor":0.5
			}
		}
	],
	"meshes":[
		{
			"name":"Hello",
			"primitives":[
				{
					"attributes":{
						"POSITION":0,
						"NORMAL":1,
						"TEXCOORD_0":2
					},
					"indices":3
				}
			]
		},
		{
			"name":"Hello.001",
			"primitives":[
				{
					"attributes":{
						"POSITION":4,
						"NORMAL":5,
						"TEXCOORD_0":6
					},
					"indices":7,
					"material":0
				}
			]
		}
	],
	"accessors":[
		{
			"bufferView":0,
			"componentType":5126,
			"count":2652,
			"max":[
				2.7887439727783203,
				0.6382545828819275,
				2.3738999366760254
			],
			"min":[
				0.03833605349063873,
				-0.15048950910568237,
				-2.3738999366760254
			],
			"type":"VEC3"
		},
		{
			"bufferView":1,
			"componentType":5126,
			"count":2652,
			"type":"VEC3"
		},
		{
			"bufferView":2,
			"componentType":5126,
			"count":2652,
			"type":"VEC2"
		},
		{
			"bufferView":3,
			"componentType":5123,
			"count":5772,
			"type":"SCALAR"
		},
		{
			"bufferView":4,
			"componentType":5126,
			"count":4254,
			"max":[
				2.7887439727783203,
				0.5994647741317749,
				1.0645945072174072
			],
			"min":[
				0.03833605349063873,
				-0.12898562848567963,
				-1.216804027557373
			],
			"type":"VEC3"
		},
		{
			"bufferView":5,
			"componentType":5126,
			"count":4254,
			"type":"VEC3"
		},
		{
			"bufferView":6,
			"componentType":5126,
			"count":4254,
			"type":"VEC2"
		},
		{
			"bufferView":7,
			"componentType":5123,
			"count":11586,
			"type":"SCALAR"
		},
		{
			"bufferView":8,
			"componentType":5126,
			"count":1,
			"max":[
				0.041666666666666664
			],
			"min":[
				0.041666666666666664
			],
			"type":"SCALAR"
		},
		{
			"bufferView":9,
			"componentType":5126,
			"count":1,
			"type":"VEC3"
		},
		{
			"bufferView":10,
			"componentType":5126,
			"count":1,
			"type":"VEC4"
		},
		{
			"bufferView":11,
			"componentType":5126,
			"count":1,
			"type":"VEC3"
		}
	],
	"bufferViews":[
		{
			"buffer":0,
			"byteLength":31824,
			"byteOffset":0,
			"target":34962
		},
		{
			"buffer":0,
			"byteLength":31824,
			"byteOffset":31824,
			"target":34962
		},
		{
			"buffer":0,
			"byteLength":21216,
			"byteOffset":63648,
			"target":34962
		},
		{
			"buffer":0,
			"byteLength":11544,
			"byteOffset":84864,
			"target":34963
		},
		{
			"buffer":0,
			"byteLength":51048,
			"byteOffset":96408,
			"target":34962
		},
		{
			"buffer":0,
			"byteLength":51048,
			"byteOffset":147456,
			"target":34962
		},
		{
			"buffer":0,
			"byteLength":34032,
			"byteOffset":198504,
			"target":34962
		},
		{
			"buffer":0,
			"byteLength":23172,
			"byteOffset":232536,
			"target":34963
		},
		{
			"buffer":0,
			"byteLength":4,
			"byteOffset":255708
		},
		{
			"buffer":0,
			"byteLength":12,
			"byteOffset":255712
		},
		{
			"buffer":0,
			"byteLength":16,
			"byteOffset":255724
		},
		{
			"buffer":0,
			"byteLength":12,
			"byteOffset":255740
		}
	],
	"buffers":[
		{
			"byteLength":255752,
			"uri":"doublewords1.bin"
		}
	]
}
