{
	"asset":{
		"generator":"Khronos glTF Blender I/O v5.0.21",
		"version":"2.0"
	},
	"scene":0,
	"scenes":[
		{
			"name":"Scene",
			"nodes":[
				0
			]
		}
	],
	"nodes":[
		{
			"mesh":0,
			"name":"Text.001",
			"rotation":[
				0.5,
				0.5,
				-0.5,
				0.5
			],
			"scale":[
				1.7214078903198242,
				1.7214078903198242,
				1.7214078903198242
			],
			"translation":[
				0.23640605807304382,
				0.013584725558757782,
				1.8368949890136719
			]
		}
	],
	"materials":[
		{
			"doubleSided":true,
			"name":"Material.001",
			"pbrMetallicRoughness":{
				"baseColorFactor":[
					0,
					0,
					0,
					1
				],
				"metallicFactor":0,
				"roughnessFactor":0.5
			}
		}
	],
	"meshes":[
		{
			"name":"Text.003",
			"primitives":[
				{
					"attributes":{
						"POSITION":0,
						"NORMAL":1,
						"TEXCOORD_0":2
					},
					"indices":3,
					"material":0
				}
			]
		}
	],
	"accessors":[
		{
			"bufferView":0,
			"componentType":5126,
			"count":4060,
			"max":[
				2.2774853706359863,
				0.970842719078064,
				0.008781173266470432
			],
			"min":[
				0.05268704146146774,
				-1.2792171239852905,
				-0.5237091779708862
			],
			"type":"VEC3"
		},
		{
			"bufferView":1,
			"componentType":5126,
			"count":4060,
			"type":"VEC3"
		},
		{
			"bufferView":2,
			"componentType":5126,
			"count":4060,
			"type":"VEC2"
		},
		{
			"bufferView":3,
			"componentType":5123,
			"count":11784,
			"type":"SCALAR"
		}
	],
	"bufferViews":[
		{
			"buffer":0,
			"byteLength":48720,
			"byteOffset":0,
			"target":34962
		},
		{
			"buffer":0,
			"byteLength":48720,
			"byteOffset":48720,
			"target":34962
		},
		{
			"buffer":0,
			"byteLength":32480,
			"byteOffset":97440,
			"target":34962
		},
		{
			"buffer":0,
			"byteLength":23568,
			"byteOffset":129920,
			"target":34963
		}
	],
	"buffers":[
		{
			"byteLength":153488,
			"uri":"word2.bin"
		}
	]
}
