{
	"asset":{
		"generator":"Khronos glTF Blender I/O v5.0.21",
		"version":"2.0"
	},
	"scene":0,
	"scenes":[
		{
			"name":"Scene",
			"nodes":[
				0
			]
		}
	],
	"nodes":[
		{
			"mesh":0,
			"name":"Text.001"
		}
	],
	"animations":[
		{
			"channels":[
				{
					"sampler":0,
					"target":{
						"node":0,
						"path":"translation"
					}
				},
				{
					"sampler":1,
					"target":{
						"node":0,
						"path":"rotation"
					}
				},
				{
					"sampler":2,
					"target":{
						"node":0,
						"path":"scale"
					}
				}
			],
			"name":"TextAction.001",
			"samplers":[
				{
					"input":4,
					"interpolation":"LINEAR",
					"output":5
				},
				{
					"input":4,
					"interpolation":"LINEAR",
					"output":6
				},
				{
					"input":4,
					"interpolation":"LINEAR",
					"output":7
				}
			]
		}
	],
	"materials":[
		{
			"doubleSided":true,
			"name":"Material",
			"pbrMetallicRoughness":{
				"baseColorFactor":[
					0,
					0,
					0,
					1
				],
				"metallicFactor":0,
				"roughnessFactor":0.5
			}
		}
	],
	"meshes":[
		{
			"name":"Hello.001",
			"primitives":[
				{
					"attributes":{
						"POSITION":0,
						"NORMAL":1,
						"TEXCOORD_0":2
					},
					"indices":3,
					"material":0
				}
			]
		}
	],
	"accessors":[
		{
			"bufferView":0,
			"componentType":5126,
			"count":4254,
			"max":[
				2.7887439727783203,
				0.5994647741317749,
				1.0645945072174072
			],
			"min":[
				0.03833605349063873,
				-0.12898562848567963,
				-1.216804027557373
			],
			"type":"VEC3"
		},
		{
			"bufferView":1,
			"componentType":5126,
			"count":4254,
			"type":"VEC3"
		},
		{
			"bufferView":2,
			"componentType":5126,
			"count":4254,
			"type":"VEC2"
		},
		{
			"bufferView":3,
			"componentType":5123,
			"count":11586,
			"type":"SCALAR"
		},
		{
			"bufferView":4,
			"componentType":5126,
			"count":1,
			"max":[
				0.041666666666666664
			],
			"min":[
				0.041666666666666664
			],
			"type":"SCALAR"
		},
		{
			"bufferView":5,
			"componentType":5126,
			"count":1,
			"type":"VEC3"
		},
		{
			"bufferView":6,
			"componentType":5126,
			"count":1,
			"type":"VEC4"
		},
		{
			"bufferView":7,
			"componentType":5126,
			"count":1,
			"type":"VEC3"
		}
	],
	"bufferViews":[
		{
			"buffer":0,
			"byteLength":51048,
			"byteOffset":0,
			"target":34962
		},
		{
			"buffer":0,
			"byteLength":51048,
			"byteOffset":51048,
			"target":34962
		},
		{
			"buffer":0,
			"byteLength":34032,
			"byteOffset":102096,
			"target":34962
		},
		{
			"buffer":0,
			"byteLength":23172,
			"byteOffset":136128,
			"target":34963
		},
		{
			"buffer":0,
			"byteLength":4,
			"byteOffset":159300
		},
		{
			"buffer":0,
			"byteLength":12,
			"byteOffset":159304
		},
		{
			"buffer":0,
			"byteLength":16,
			"byteOffset":159316
		},
		{
			"buffer":0,
			"byteLength":12,
			"byteOffset":159332
		}
	],
	"buffers":[
		{
			"byteLength":159344,
			"uri":"doublewords1.bin"
		}
	]
}
